# xmcd
#
# Track frame offsets:
#	150
#	18984
#	30113
#	41593
#	55713
#	70112
#	88607
#	102855
#	124852
#	149091
#
# Disc length: 2231 seconds
#
# Revision: 0
# Processed by: cddbd v1.5.2PL0 Copyright (c) Steve Scherf et al.
# Submitted via: audiograbber 1.83.01
#
DISCID=7d08b50a
DTITLE=Various Artist - New Rock  New Bands  New Albums
DYEAR=1900
DGENRE=Hard Rock
TTITLE0=Van Wilks - 1959
TTITLE1=Ian McLagan Little - Troublemaker
TTITLE2=The Kids - Some Day
TTITLE3=Faith Band - Dark Side Of L.A.
TTITLE4=Def Leppard - Answer To The Master
TTITLE5=Original Mirrors - Flying
TTITLE6=The Reels - Pefab Hearts
TTITLE7=Richard Fagan - Rhythm Of The Rails
TTITLE8=Phoenix - Just Another Day
TTITLE9=Duke Jupiter - Gonna Be There
EXTD=
EXTT0=
EXTT1=
EXTT2=
EXTT3=
EXTT4=
EXTT5=
EXTT6=
EXTT7=
EXTT8=
EXTT9=
PLAYORDER=
